Coordinates
version=1
nRows=12
nColumns=28
inDegrees=yes

Units are S.I. units (second, meters, Newtons, ...)
Angles are in degrees.

endheader
time	pelvis_tilt	pelvis_list	pelvis_rotation	pelvis_tx	pelvis_ty	pelvis_tz	hip_flexion_r	hip_adduction_r	hip_rotation_r	knee_angle_r	ankle_angle_r	subtalar_angle_r	mtp_angle_r	hip_flexion_l	hip_adduction_l	hip_rotation_l	knee_angle_l	socket_flexion	socket_adduction	socket_rotation	socket_tx	socket_ty	socket_tz	foot_flex	lumbar_extension	lumbar_bending	lumbar_rotation
      0.95000000	      5.69513017	      1.44089521	     -3.45860055	      0.41992547	      1.04417144	      0.32837378	     -0.62028943	      1.04169762	     -6.35356225	    -19.42600006	      5.99529173	     -0.74946848	     18.88080882	      5.28901509	      0.49052064	     -1.94773167	    -54.43421917	      0.00000000	      0.00000000	      0.00000000	      0.00000000	      0.00958178	      0.00000000	      0.92438732	    -13.35176658	     -1.98032439	      4.85376358
      0.95416667	      5.66227133	      1.54731104	     -3.67858948	      0.42463832	      1.04493930	      0.32889562	     -1.03824210	      0.89900521	     -6.30141445	    -19.07162112	      5.95865299	     -0.64663815	     18.90457404	      5.88935206	      0.60366632	     -1.88365158	    -53.99713656	      0.00000000	      0.00000000	      0.00000000	      0.00000000	      0.00970642	      0.00000000	      0.93893797	    -13.36224480	     -2.13736869	      4.92834920
      0.95833333	      5.61784859	      1.66038979	     -3.89076001	      0.42937203	      1.04567302	      0.32943022	     -1.45545167	      0.75797918	     -6.21479576	    -18.68814692	      5.84599743	     -0.47158398	     18.92957351	      6.47879233	      0.72938212	     -1.77998213	    -53.50902908	      0.00000000	      0.00000000	      0.00000000	      0.00000000	      0.00980973	      0.00000000	      0.93011234	    -13.34924288	     -2.32703443	      5.05152705
      0.96250000	      5.57655610	      1.74212178	     -4.10676586	      0.43400912	      1.04631131	      0.33002216	     -1.84156923	      0.64365610	     -6.16709838	    -18.36557958	      5.71211198	     -0.27892381	     18.96444941	      7.05889486	      0.80355062	     -1.68781633	    -52.99073187	      0.00000000	      0.00000000	      0.00000000	      0.00000000	      0.00984231	      0.00000000	      0.92277987	    -13.37480634	     -2.49162521	      5.20190313
      0.96666667	      5.52564062	      1.83155042	     -4.32193487	      0.43873312	      1.04693101	      0.33051923	     -2.25068577	      0.52161560	     -6.09557189	    -17.97377654	      5.57966237	     -0.04307298	     19.01459632	      7.61628181	      0.90969963	     -1.55953831	    -52.40773883	      0.00000000	      0.00000000	      0.00000000	      0.00000000	      0.00986307	      0.00000000	      0.91428492	    -13.34620854	     -2.65902857	      5.38250650
      0.97083333	      5.53924885	      1.81856614	     -4.55842554	      0.44280115	      1.04747438	      0.33103221	     -2.51949678	      0.47748323	     -6.15502492	    -17.95752131	      5.57182558	     -0.01467697	     19.01701960	      8.21641826	      0.87889665	     -1.48850204	    -51.97562723	      0.00000000	      0.00000000	      0.00000000	      0.00000000	      0.01006802	      0.00000000	      0.95184554	    -13.53176379	     -2.68019180	      5.40678126
      0.97500000	      5.41774566	      1.95416849	     -4.71911158	      0.44796724	      1.04794900	      0.33148666	     -2.98990701	      0.33143941	     -5.99665667	    -17.34427590	      5.42977335	      0.31269906	     19.07329936	      8.72400857	      1.05022781	     -1.25155116	    -51.17605793	      0.00000000	      0.00000000	      0.00000000	      0.00000000	      0.00980965	      0.00000000	      0.90646671	    -13.35116201	     -2.89438858	      5.63009375
      0.97916667	      5.42831285	      1.93643055	     -4.95130165	      0.45197995	      1.04840372	      0.33201322	     -3.25465839	      0.29190487	     -6.05367120	    -17.31458160	      5.41387706	      0.35263353	     19.07736373	      9.32628601	      1.00445889	     -1.16824785	    -50.71420798	      0.00000000	      0.00000000	      0.00000000	      0.00000000	      0.01016677	      0.00000000	      0.94088457	    -13.53840718	     -2.92520206	      5.66098740
      0.98333333	      5.28341876	      2.01739498	     -5.11258490	      0.45724845	      1.04875059	      0.33247285	     -3.73952216	      0.20470671	     -5.90996452	    -16.62543787	      5.20848790	      0.76199967	     19.15777077	      9.79335796	      1.11390284	     -0.89458840	    -49.81652238	      0.00000000	      0.00000000	      0.00000000	      0.00000000	      0.00974356	      0.00000000	      0.83995987	    -13.30884139	     -3.09341383	      5.95307879
      0.98750000	      5.29103649	      1.99684116	     -5.32395175	      0.46116142	      1.04909812	      0.33298515	     -3.98720279	      0.17161337	     -5.95616184	    -16.61530852	      5.19632557	      0.79670028	     19.16300712	     10.39732336	      1.05872915	     -0.79434877	    -49.31810956	      0.00000000	      0.00000000	      0.00000000	      0.00000000	      0.01016849	      0.00000000	      0.89285237	    -13.51748862	     -3.11579883	      5.98023341
      0.99166667	      5.15579808	      2.02802633	     -5.46597798	      0.46625088	      1.04929114	      0.33331362	     -4.39756894	      0.12539904	     -5.80257952	    -16.11253669	      5.08074192	      1.08321850	     19.23237040	     10.81776581	      1.13954966	     -0.40247111	    -48.34250703	      0.00000000	      0.00000000	      0.00000000	      0.00000000	      0.00959896	      0.00000000	      0.86504992	    -13.33150981	     -3.19388534	      6.18230148
      0.99583333	      5.06371373	      1.98217932	     -5.61453783	      0.47101657	      1.04950750	      0.33379437	     -4.84028368	      0.16406773	     -5.75960687	    -15.57273724	      4.86484283	      1.41963969	     19.35132363	     11.31737851	      1.06798233	     -0.19310219	    -47.55349636	      0.00000000	      0.00000000	      0.00000000	      0.00000000	      0.00946981	      0.00000000	      0.76241462	    -13.26245642	     -3.21494533	      6.45263044
